<?xml version="1.0" encoding="utf-8"?>
<!-- Generator: Adobe Illustrator 23.0.3, SVG Export Plug-In . SVG Version: 6.00 Build 0)  -->
<svg version="1.1" id="Capa_1" xmlns="http://www.w3.org/2000/svg" xmlns:xlink="http://www.w3.org/1999/xlink" x="0px" y="0px"
	 viewBox="0 0 76 76" style="enable-background:new 0 0 76 76;" xml:space="preserve">
<style type="text/css">
	.st0{fill:none;stroke:#B6C453;stroke-width:2;stroke-linecap:round;stroke-linejoin:round;stroke-miterlimit:10;}
	.st1{fill:#B6C453;}
</style>
<g id="shopping_cart_6_">
	<circle class="st0" cx="31.2" cy="68.3" r="5.7"/>
	<circle class="st0" cx="51.8" cy="68.3" r="5.7"/>
	<g>
		<circle class="st1" cx="3.8" cy="8.8" r="2.3"/>
		<path class="st0" d="M19.6,45.4l1.7,7.8c0.5,2.1,2.3,3.6,4.5,3.6h34"/>
		<line class="st0" x1="17.7" y1="36.3" x2="18.7" y2="40.8"/>
		<path class="st0" d="M4.9,8.8h3.2c2.2,0,4,1.5,4.5,3.6l4.1,19.3"/>
	</g>
	<g>
		<path class="st0" d="M22.1,22.5h51.5L63.3,47.2c-0.7,1.7-2.4,2.8-4.2,2.8H27.8"/>
	</g>
	<g>
		<g>
			<path class="st0" d="M47.4,22.5L63.8,6.2c2-2,5.3-2,7.3,0l0,0c2,2,2,5.3,0,7.3l-9.1,9.1"/>
			<line class="st0" x1="60.9" y1="10.6" x2="65.8" y2="12.2"/>
			<line class="st0" x1="55.3" y1="16.3" x2="60.1" y2="17.9"/>
		</g>
		<g>
			<path class="st0" d="M47.7,21.4c-1.2-3.1-4.1-5.7-7.3-5.7l0,0v-8h1.1V4.2c0-0.6-0.5-1.1-1.1-1.1h-5.7c-0.6,0-1.1,0.5-1.1,1.1v3.4
				h1.1v8l0,0c-3.3,0-6.1,2.6-7.3,5.7"/>
			<line class="st0" x1="39.2" y1="7.7" x2="40.4" y2="7.7"/>
		</g>
	</g>
	<g>
		<g>
			<line class="st0" x1="16.4" y1="40.8" x2="39.2" y2="40.8"/>
			<line class="st0" x1="7.2" y1="40.8" x2="9.5" y2="40.8"/>
		</g>
		<line class="st0" x1="4.9" y1="31.7" x2="26.7" y2="31.7"/>
		<line class="st0" x1="2.6" y1="50" x2="12.9" y2="50"/>
	</g>
</g>
</svg>
