<?xml version="1.0" encoding="utf-8"?>
<!-- Generator: Adobe Illustrator 23.0.3, SVG Export Plug-In . SVG Version: 6.00 Build 0)  -->
<svg version="1.1" id="Capa_1" xmlns="http://www.w3.org/2000/svg" xmlns:xlink="http://www.w3.org/1999/xlink" x="0px" y="0px"
	 viewBox="0 0 76 76" style="enable-background:new 0 0 76 76;" xml:space="preserve">
<style type="text/css">
	.st0{fill:none;stroke:#B6C453;stroke-width:2;stroke-linecap:round;stroke-linejoin:round;stroke-miterlimit:10;}
</style>
<g id="express_delivery_document">
	<g>
		<path class="st0" d="M19.9,50.3L12.7,43c-0.4-0.4-0.4-1.1,0-1.6l2.2-2.2"/>
		<path class="st0" d="M34.2,19.9L49.1,5.1c0.4-0.4,1.1-0.4,1.6,0l18.7,18.7c1.2,1.2,1.9,2.9,1.9,4.6l0,12.2c0,1.7-0.7,3.4-1.9,4.6
			L42.9,71.7c-0.4,0.4-1.1,0.4-1.6,0l-17-17"/>
		<line class="st0" x1="19" y1="35.1" x2="30" y2="24.1"/>
		<path class="st0" d="M66.9,30.8l-3.6,3.6c-0.4,0.4-0.4,1.1,0,1.5l6.8,6.8"/>
	</g>
	<g>
		<line class="st0" x1="18.1" y1="19.9" x2="20.3" y2="19.9"/>
		<polyline class="st0" points="26.8,19.9 34.4,19.9 39.8,19.9 		"/>
		<line class="st0" x1="10.5" y1="35.1" x2="44.1" y2="35.1"/>
		<line class="st0" x1="34.4" y1="50.3" x2="12.7" y2="50.3"/>
		<line class="st0" x1="6.2" y1="50.3" x2="4" y2="50.3"/>
	</g>
</g>
</svg>
