<?xml version="1.0" encoding="utf-8"?>
<!-- Generator: Adobe Illustrator 23.0.3, SVG Export Plug-In . SVG Version: 6.00 Build 0)  -->
<svg version="1.1" id="Capa_1" xmlns="http://www.w3.org/2000/svg" xmlns:xlink="http://www.w3.org/1999/xlink" x="0px" y="0px"
	 viewBox="0 0 76 76" style="enable-background:new 0 0 76 76;" xml:space="preserve">
<style type="text/css">
	.st0{fill:none;stroke:#B6C453;stroke-width:2;stroke-linecap:round;stroke-linejoin:round;stroke-miterlimit:10;}
</style>
<g id="fast_service">
	<g>
		<path class="st0" d="M21.3,23.2c5.3-5.5,12.8-9,21-9c16.1,0,29.1,13,29.1,29.1s-13,29.1-29.1,29.1c-16.1,0-29.1-13-29.1-29.1
			c0-1.5,0.1-3,0.3-4.5"/>
		<path class="st0" d="M15.4,32.2c0.3-0.8,0.7-1.5,1-2.2c0.2-0.4,0.4-0.8,0.6-1.1"/>
	</g>
	<path class="st0" d="M42.3,23.2c11.1,0,20.2,9,20.2,20.2s-9,20.2-20.2,20.2c-2.8,0-5.4-0.6-7.8-1.6"/>
	<g>
		<line class="st0" x1="28.9" y1="58" x2="38.9" y2="46.8"/>
		<circle class="st0" cx="42.3" cy="43.4" r="3.4"/>
	</g>
	<g>
		<line class="st0" x1="2" y1="23.2" x2="31.1" y2="23.2"/>
		<line class="st0" x1="7.6" y1="32.2" x2="36.7" y2="32.2"/>
	</g>
	<g>
		<path class="st0" d="M36.7,8.7h-1.1V5.3c0-1.2,1-2.2,2.2-2.2h9c1.2,0,2.2,1,2.2,2.2v3.4h-4.5"/>
		<path class="st0" d="M63.6,16.3c1.7,1.4,3.3,3,4.7,4.7"/>
	</g>
</g>
</svg>
