<?xml version="1.0" encoding="utf-8"?>
<!-- Generator: Adobe Illustrator 23.0.3, SVG Export Plug-In . SVG Version: 6.00 Build 0)  -->
<svg version="1.1" id="Capa_1" xmlns="http://www.w3.org/2000/svg" xmlns:xlink="http://www.w3.org/1999/xlink" x="0px" y="0px"
	 viewBox="0 0 76 76" style="enable-background:new 0 0 76 76;" xml:space="preserve">
<style type="text/css">
	.st0{fill:none;stroke:#B6C453;stroke-width:2;stroke-linecap:round;stroke-linejoin:round;stroke-miterlimit:10;}
	.st1{fill:none;stroke:#B6C453;stroke-width:2;stroke-linecap:square;stroke-linejoin:round;stroke-miterlimit:10;}
	.st2{fill:#B6C453;stroke:#B6C453;stroke-miterlimit:10;}
</style>
<g id="shopping_bag_6_">
	<path class="st0" d="M37.5,19.8l3-7.3c2.3-5.6,8.7-8.2,14.2-5.9c5.6,2.3,8.2,8.7,5.9,14.2l-3,7.3"/>
	<g>
		<line class="st1" x1="45.2" y1="16.6" x2="54.4" y2="20.4"/>
		<path class="st0" d="M35.9,65.3l14.6,6c2,0.8,4.3-0.1,5.2-2.1l15.2-42l-11-4.6"/>
		<path class="st0" d="M13.7,41.9l-3.9,8.3c-0.8,2,0.1,4.3,2.1,5.2l13.2,5.5"/>
		<line class="st0" x1="19.2" y1="30.2" x2="15.7" y2="37.6"/>
		<polyline class="st0" points="39.7,14.3 28.7,9.8 21.2,25.9 		"/>
	</g>
	<path class="st2" d="M38.9,21.4c-0.4,1.1-1.7,1.6-2.8,1.1s-1.6-1.7-1.1-2.8c0.4-1.1,1.7-1.6,2.8-1.1C38.8,19.1,39.3,20.4,38.9,21.4
		z"/>
	<path class="st2" d="M59.1,29.9c-0.4,1.1-1.7,1.6-2.8,1.1s-1.6-1.7-1.1-2.8c0.4-1.1,1.7-1.6,2.8-1.1C59,27.6,59.5,28.9,59.1,29.9z"
		/>
	<g>
		<g>
			<line class="st0" x1="7.2" y1="25.9" x2="9.3" y2="25.9"/>
			<polyline class="st0" points="15.7,25.9 23.1,25.9 28.4,25.9 			"/>
		</g>
		<line class="st0" x1="11.4" y1="37.6" x2="35.8" y2="37.6"/>
		<g>
			<line class="st0" x1="31.6" y1="61" x2="13.5" y2="61"/>
			<line class="st0" x1="7.2" y1="61" x2="5" y2="61"/>
		</g>
	</g>
</g>
</svg>
