<?xml version="1.0" encoding="utf-8"?>
<!-- Generator: Adobe Illustrator 23.0.3, SVG Export Plug-In . SVG Version: 6.00 Build 0)  -->
<svg version="1.1" id="Слой_1" xmlns="http://www.w3.org/2000/svg" xmlns:xlink="http://www.w3.org/1999/xlink" x="0px" y="0px"
	 viewBox="0 0 300 300" style="enable-background:new 0 0 300 300;" xml:space="preserve">
<g>
	<g>
		<g>
			<path d="M274.2,221.9l-39.8-39.8c-7.9-7.9-21.1-7.7-29.3,0.6L185,202.7c-1.3-0.7-2.6-1.4-4-2.2c-12.7-7-30-16.6-48.3-34.9
				c-18.3-18.3-27.9-35.7-35-48.4c-0.7-1.3-1.5-2.6-2.2-3.9l13.5-13.4l6.6-6.6c8.2-8.2,8.4-21.4,0.5-29.3L76.5,24.1
				c-7.9-7.9-21.1-7.7-29.3,0.6L35.9,36l0.3,0.3c-3.8,4.8-6.9,10.3-9.3,16.3c-2.2,5.7-3.5,11.1-4.1,16.6
				c-5.3,43.6,14.7,83.5,68.7,137.5c74.7,74.7,135,69.1,137.6,68.8c5.7-0.7,11.1-2,16.6-4.2c5.9-2.3,11.5-5.5,16.3-9.2l0.2,0.2
				l11.4-11.1C281.9,243,282.1,229.8,274.2,221.9z"/>
		</g>
	</g>
</g>
</svg>
