<?xml version="1.0" encoding="utf-8"?>
<!-- Generator: Adobe Illustrator 23.0.3, SVG Export Plug-In . SVG Version: 6.00 Build 0)  -->
<svg version="1.1" id="Слой_1" xmlns="http://www.w3.org/2000/svg" xmlns:xlink="http://www.w3.org/1999/xlink" x="0px" y="0px"
	 viewBox="0 0 200 200" style="enable-background:new 0 0 200 200;" xml:space="preserve">
<style type="text/css">
	.st0{fill:#FFFFFF;}
</style>
<g>
	<g>
		<path class="st0" d="M100.2,1C58.7,1,25.1,34.7,25.1,76.2c0,40.4,69.3,118.6,72.2,121.9c1.4,1.6,3.9,1.7,5.5,0.3
			c0.1-0.1,0.2-0.2,0.3-0.3c2.9-3.3,72.2-81.5,72.2-121.9C175.3,34.7,141.7,1.1,100.2,1z M100.2,189.6
			C87,174.1,32.8,109.2,32.8,76.1c0-37.2,30.2-67.4,67.4-67.4s67.4,30.2,67.4,67.4C167.6,109.2,113.4,174.2,100.2,189.6z"/>
	</g>
</g>
<g>
	<g>
		<path class="st0" d="M101.5,38.7c-22.5,0-40.7,18.3-40.7,40.8s18.3,40.7,40.8,40.7c22.5,0,40.7-18.2,40.7-40.7
			C142.3,56.9,124,38.7,101.5,38.7z M101.5,112.4c-18.2,0-33-14.8-33-33s14.8-33,33-33s33,14.8,33,33
			C134.5,97.7,119.8,112.4,101.5,112.4z"/>
	</g>
</g>
</svg>
