<?xml version="1.0" encoding="utf-8"?>
<!-- Generator: Adobe Illustrator 23.0.3, SVG Export Plug-In . SVG Version: 6.00 Build 0)  -->
<svg version="1.1" id="Слой_1" xmlns="http://www.w3.org/2000/svg" xmlns:xlink="http://www.w3.org/1999/xlink" x="0px" y="0px"
	 viewBox="0 0 200 200" style="enable-background:new 0 0 200 200;" xml:space="preserve">
<style type="text/css">
	.st0{fill:#FFFFFF;}
</style>
<g>
	<g>
		<path class="st0" d="M99.6,195.3c-52.9,0-96-43.1-96-96c0-52.9,43.1-96,96-96c52.9,0,96,43.1,96,96
			C195.6,152.2,152.6,195.3,99.6,195.3z M99.6,10.7C50.8,10.7,11,50.4,11,99.3c0,48.8,39.7,88.6,88.6,88.6
			c48.8,0,88.6-39.7,88.6-88.6C188.2,50.4,148.5,10.7,99.6,10.7z"/>
	</g>
	<g>
		<path class="st0" d="M99.6,113.9c-8.1,0-14.7-6.6-14.7-14.7c0-8.1,6.6-14.7,14.7-14.7c8.1,0,14.7,6.6,14.7,14.7
			C114.3,107.4,107.7,113.9,99.6,113.9z M99.6,92c-4,0-7.3,3.3-7.3,7.3c0,4,3.3,7.3,7.3,7.3c4,0,7.3-3.3,7.3-7.3
			C106.9,95.3,103.6,92,99.6,92z"/>
	</g>
	<g>
		<path class="st0" d="M106.8,94.7c-0.9,0-1.7-0.3-2.4-0.9c-1.5-1.3-1.7-3.7-0.4-5.2L146.4,40c1.3-1.5,3.7-1.7,5.2-0.4
			c1.5,1.3,1.7,3.7,0.4,5.2l-42.4,48.6C108.9,94.3,107.8,94.7,106.8,94.7z"/>
	</g>
</g>
</svg>
