<?xml version="1.0" encoding="utf-8"?>
<!-- Generator: Adobe Illustrator 23.0.1, SVG Export Plug-In . SVG Version: 6.00 Build 0)  -->
<svg version="1.1" id="Слой_1" xmlns="http://www.w3.org/2000/svg" xmlns:xlink="http://www.w3.org/1999/xlink" x="0px" y="0px"
	 viewBox="0 0 670.5 485" style="enable-background:new 0 0 670.5 485;" xml:space="preserve">
<style type="text/css">
	.st0{fill-rule:evenodd;clip-rule:evenodd;fill:#76943C;}
	.st1{fill-rule:evenodd;clip-rule:evenodd;fill:#FFFFFF;}
</style>
<path class="st0" d="M383.2,5.7c-5.5,4.7-2.8,11.1,5.2,12.3c2.5,0.4,4.9,0.3,5.2-0.2C395.1,15.4,388.8,4,386,4
	C385.6,4,384.3,4.8,383.2,5.7z"/>
<path class="st0" d="M415.8,19.7c-5.2,11.3-7.2,21.6-6.5,32.7c0.6,9.8,2.5,16.2,7.9,27.1c6.1,12.1,10.4,24.9,11.7,35l0.7,5l1.8-4
	c4.3-9.9,5.1-15.3,5.1-35.5c0-20.9-1.2-29.5-6.1-45.4c-2.9-9-9-22.6-10.3-22.6C419.6,12,417.7,15.5,415.8,19.7z"/>
<path class="st0" d="M389.6,27.5c-2,2.1-2.1,6.9-0.1,8.5c0.9,0.7,3.4,1.6,5.6,2c5.2,1,5.7-0.3,2.7-6.6
	C395.3,26.1,392.4,24.7,389.6,27.5z"/>
<path class="st0" d="M182.1,81.1c-38.2,4.3-78.4,22.1-110.4,48.9C7.4,183.9-13.4,276,19.9,359.3C34.6,396,61.5,429.1,94,450.2
	c22.5,14.6,45.5,23.4,74.5,28.4c14.3,2.5,50.7,2.5,66.5,0.1c29.3-4.6,61.5-14.3,83.5-25.2c30.5-15.2,55-40.5,72-74.4
	c4.1-8.2,9.9-22.8,10.9-27.8l0.7-3.1l-3.8,1.4c-7.9,2.8-17.7,1.1-24.9-4.3l-3.2-2.4l-3.5,6.3c-17.1,30.4-49.3,52.2-89.9,60.9
	c-13.4,2.9-40,3.6-53.3,1.5c-40.8-6.7-79-35.7-97.5-74.1c-10.8-22.4-13.8-42.2-11-73c5.8-63.3,36.3-110.9,86.5-135.1
	c18.8-9.1,35.6-12.4,62.5-12.4c18.4,0,36.3,1.8,54.5,5.5c12.7,2.5,33.7,8.3,40,11c5.1,2.1,5.5,1.9,5.5-1.4c0-2.2-1.3-4-5.5-7.9
	c-21.8-20-62.1-35-111.5-41.7C233.2,80.6,193.9,79.7,182.1,81.1z"/>
<path class="st1" d="M395.2,128.1c13.9,27.5,15.5,61.8,4.3,92.9c-3.7,10.1-9.4,22-10.5,22c-0.6,0-1-23.5-1-62.6
	c0-49.6,0.3-62.5,1.3-62.2C389.9,118.4,392.6,122.9,395.2,128.1z M370.2,215.2c0.3,106,0.4,116.6,2,119.3
	c3.4,6.3,10.5,10.5,17.5,10.5c4.2,0,10.9-2.7,13.6-5.5c1.7-1.7,1.9-1.7,4,0.3c5.2,4.9,13.6,6.4,21,3.8c3.1-1.2,3.7-1.2,3.7,0
	c0,1.1,2,1.4,9,1.4h9v-23c0-21.7,0.1-23.1,2-25c1.1-1.1,2.7-2,3.5-2c0.8,0,2.4,0.9,3.5,2c1.9,1.9,2,3.3,2,25v23h9.5h9.5v-23
	c0-21.7,0.1-23.1,2-25c2.5-2.5,5.2-2.6,7.3-0.2c1.5,1.6,1.7,4.9,1.7,25V345h11.5H514v-5.5V334l-5.5,3.5c-5.1,3.3-11.1,4.6-12.8,2.8
	c-0.4-0.3,1.6-1.9,4.3-3.5c9.5-5.4,13.7-14.6,12.8-28.2c-0.8-11.5-6.5-20.5-15.5-24.3c-5.5-2.2-7.4-1.7-13.4,4.3l-5.6,5.6L476,291
	c-2.6-3.6-11-8-15.5-8c-2,0-4.1,1.1-6.7,3.7l-3.8,3.7v-3.7V283h-9h-9v26.4c0,26.2,0,26.5-2.2,28c-2.7,1.9-6.9,2.1-8.6,0.4
	c-0.9-0.9-1.2-8.5-1.2-28V283h-9h-9v25.3v25.3l-2.9,2.8c-2,2-3.7,2.7-5.7,2.4c-5.1-0.6-5.4-2.3-5.4-37.4v-32.1l6.9-13.4
	c16.7-32.1,24.1-59.6,24.1-89.2c0-29.1-7.8-48.7-24.7-62.8l-5.8-4.8l-9.3-0.1H370L370.2,215.2z"/>
<path class="st0" d="M255.5,143.1c-42.7,5.5-78.9,38.1-98.9,89.2c-11,28-9.8,66.6,3,93.6c12.7,27,34.4,44.2,63.9,50.7
	c11.7,2.5,34,2.4,46.5-0.4c20.7-4.5,38.6-13,51.5-24.6l4-3.5l-5.8,1.9c-22.5,7.5-50.1,6.4-68.7-2.7c-14.4-7-26.5-22.1-33.2-41.3
	c-3.2-9.2-3.3-10-3.3-25.5c0-14.9,0.2-16.5,2.8-24c9.3-26.5,29.3-43.8,59.4-51.6c29.8-7.6,63.6,7.3,85.8,37.6
	c1.3,1.8,1.4-1.1,1.5-25.6v-27.5l-8.7-8.6c-22.2-21.5-47.5-34.5-73.8-37.7C271.3,141.9,265.5,141.9,255.5,143.1z"/>
<path class="st1" d="M614,259.8c0,72.3-0.1,76-1.8,77.5c-2.3,2.1-6.6,2.2-8.6,0.1c-1.4-1.3-1.6-5.3-1.6-28V283h-9h-9v23.8
	c0,23.1,0.1,24,2.3,28.3c4.3,8,15.7,12,24.2,8.5c3.1-1.3,3.5-1.3,3.5,0c0,1.1,1.9,1.4,9.5,1.4h9.5v-14.8c0-15.9,0.4-17.2,5-17.2
	c4.6,0,5,1.3,5,17.2V345h11.1h11.1l-0.4-13.3c-0.3-11.5-0.6-13.8-2.6-17.7c-3.1-5.9-5.8-8.7-10.6-11.2l-3.9-2l8.9-8.9l8.9-8.9h-10
	h-9.9l3.2,3.3l3.2,3.3l-9.5,9.4l-9.5,9.5v-62.3V184h-9.5H614L614,259.8z"/>
<path class="st1" d="M314.1,238.6c7,2.1,11.9,7.1,14.5,15c1.6,4.9,1.9,8.4,1.7,21.4c-0.2,18.6-1.2,22.2-7,26.6
	c-7.1,5.4-16.1,7.9-28.5,7.9c-9.2,0-11-0.3-13.5-2.1c-6.7-4.9-9.2-17-7.5-36.4c1.7-18.5,4.7-26.5,11.6-30.2
	C291.8,237.2,305.8,236.2,314.1,238.6z M293,221.6c-14.9,2.3-20.9,4.5-26.9,9.9c-7.8,7-11.2,17.8-13.6,43.5
	c-3.9,39.8,0.7,63.4,13.5,70c9.9,5.1,31,4.8,49.6-0.6c14.2-4.1,27.5-11.9,34.2-19.9c5-6.1,5.7-10.5,5.7-35.5c0-25.1-0.9-30.6-7-43.5
	c-5.9-12.4-16.9-20.9-30.4-23.5C313,221.1,298.4,220.8,293,221.6z"/>
<path class="st1" d="M403.9,255.9c-2.3,2.3-2.9,3.8-2.9,7.1s0.6,4.8,2.9,7.1c2.3,2.3,3.8,2.9,7.1,2.9c8,0,12.3-7.6,8.5-15
	C416.4,252.1,408.8,251.1,403.9,255.9z"/>
<path class="st1" d="M586.7,255.4c-9.9,9.2,2.9,23.7,13.2,15c2.6-2.2,3.1-3.3,3.1-7.1c0-3.6-0.6-5-2.9-7.4
	C596.2,252.1,590.5,251.9,586.7,255.4z"/>
<path class="st1" d="M550.2,296.7c1.6,1.4,1.8,3.5,1.8,20c0,10.8-0.4,19.2-1,20.4c-1.3,2.3-6.2,2.6-8.4,0.3c-1.3-1.3-1.6-4.6-1.6-20
	c0-17.1,0.1-18.5,2-20.4C545.4,294.6,547.7,294.5,550.2,296.7z M523,360v77h9h9v-46v-46h6.3c11.1,0,18.8-5.3,24-16.8
	c3.1-6.7,3.1-22.6,0.1-29.3c-4-8.6-12.5-15.8-18.9-15.9c-1.2,0-3.9,1.8-6,4c-2.1,2.2-4.3,4-4.7,4c-0.4,0-0.8-1.8-0.8-4v-4h-9h-9
	L523,360z"/>
</svg>
